<?xml version="1.0" encoding="utf-8"?>
<!-- Generator: Adobe Illustrator 25.3.1, SVG Export Plug-In . SVG Version: 6.00 Build 0)  -->
<svg version="1.1" id="Layer_1" xmlns="http://www.w3.org/2000/svg" xmlns:xlink="http://www.w3.org/1999/xlink" x="0px" y="0px"
	 width="1200" height="400" viewBox="0 0 1200 400" style="enable-background:new 0 0 1200 400;" xml:space="preserve">
<style type="text/css">
	.st0{opacity:0.24;fill:#00619C;enable-background:new    ;}
	.st1{fill:#D06328;}
	.st2{enable-background:new    ;}
	.st3{fill:#5E5E5E;}
	.st4{fill:#DC8744;}
	.st5{fill:#3A556A;}
	.st6{fill:#FFFFFF;}
	.st7{fill:#D5D6DB;}
	.st8{fill:#2F4859;}
	.st9{fill:#7F8C8D;}
	.st10{fill:#BDC3C7;}
	.st11{fill:#2C3E50;}
	.st12{fill:#35495E;}
	.st13{fill:#547580;}
	.st14{fill:#4C8056;}
	.st15{fill:#3F5C6C;}
	.st16{fill:#71C285;}
	.st17{fill:#84B5CB;}
	.st18{fill:none;}
	.st19{fill:none;stroke:#3A556A;stroke-width:1.7699;stroke-miterlimit:10;}
	.st20{fill:none;stroke:#3A556A;stroke-width:1.8462;stroke-miterlimit:10;}
	.st21{fill:none;stroke:#3A556A;stroke-width:1.8182;stroke-miterlimit:10;}
	.st22{fill:none;stroke:#3A556A;stroke-width:2;stroke-miterlimit:10;}
	.st23{fill:#0E8730;}
	.st24{fill:none;stroke:#FFFFFF;stroke-width:4;stroke-miterlimit:10;}
	.st25{fill:#0E8730;stroke:#FFFFFF;stroke-width:4;stroke-miterlimit:10;}
	.st26{fill:#0E8730;stroke:#FFFFFF;stroke-width:1.5556;stroke-miterlimit:10;}
	.st27{fill:#B51212;}
	.st28{fill:none;stroke:#FFFFFF;stroke-width:1.5556;stroke-miterlimit:10;}
	.st29{fill:#3E3E3F;}
	.st30{fill:#E2E4E5;}
	.st31{fill:#F7B4B4;}
	.st32{fill:#FBC8C8;}
</style>
<rect y="1" class="st0" width="1200" height="400"/>
<path class="st1" d="M527.1,197.4h-76.3v-32.7h76.3V197.4z M625.2,164.7H538v32.7h87.2V164.7z M712.4,164.7h-76.3v32.7h76.3V164.7z
	 M527.1,252.1h-76.3v32.5h76.3V252.1z M625.2,251.9H538v32.5h87.2V251.9z M712.4,252.1h-75.9v32.5h75.9V252.1z M581.6,208.3h-87.2
	V241h87.2V208.3z M668.8,208.3h-76.3V241h76.3V208.3z M712.4,208.3h-32.7V241h32.7V208.3z M483.5,208.3h-32.7V241h32.7V208.3z
	 M666.3,83.6c0.3,14.7-6.6,25.5-14.8,29.7c-24.8-8.9,10.8-66.3-56.9-86.2c13.6,19.9,10.7,52.2-11.1,63.1
	c-23.2-12.5,4.3-59-64.9-67.3c32.3,34.7-18.8,56.5,0.7,87.6c-10.7-2.1-19.4-17.6-14.5-34.4c-24.6,17.4-22,52.4-6.4,66.7h48.5
	c-9.9-13.6,17.5-24.9-0.1-40.2c38,3.7,22.9,24.3,35.7,29.8c12-4.8,17-17.2,9.6-29.3c25.7,5.7,28.4,29.9,21.2,39.6h50.4
	C681.4,127.2,679.7,100.9,666.3,83.6z"/>
<g class="st2">
	<path class="st3" d="M467.9,311.9c0,0.2-0.1,0.3-0.2,0.4s-0.2,0.2-0.3,0.2c-0.1,0-0.3,0.1-0.5,0.1s-0.5,0-0.8,0c-0.4,0-0.7,0-0.9,0
		s-0.4,0-0.5-0.1c-0.1,0-0.2-0.1-0.3-0.2s-0.1-0.2-0.1-0.4l-2-8h0l-1.9,8c0,0.2-0.1,0.3-0.1,0.4c-0.1,0.1-0.2,0.2-0.3,0.2
		c-0.1,0.1-0.3,0.1-0.5,0.1s-0.5,0-0.9,0c-0.4,0-0.7,0-0.9,0s-0.4,0-0.5-0.1c-0.1,0-0.2-0.1-0.3-0.2s-0.1-0.2-0.1-0.4l-2.9-11.1
		c-0.1-0.2-0.1-0.4-0.1-0.6c0-0.1,0-0.2,0.1-0.3c0.1-0.1,0.2-0.1,0.4-0.1c0.2,0,0.4,0,0.8,0c0.3,0,0.6,0,0.7,0c0.2,0,0.3,0,0.4,0.1
		s0.2,0.1,0.2,0.2c0,0.1,0.1,0.2,0.1,0.3l2.2,9.7h0l2.3-9.7c0-0.1,0.1-0.2,0.1-0.3c0-0.1,0.1-0.1,0.2-0.2c0.1,0,0.2-0.1,0.4-0.1
		c0.2,0,0.4,0,0.7,0c0.3,0,0.6,0,0.8,0c0.2,0,0.3,0,0.4,0.1s0.2,0.1,0.2,0.2c0,0.1,0.1,0.2,0.1,0.3l2.4,9.7h0l2.2-9.7
		c0-0.1,0-0.2,0.1-0.3s0.1-0.1,0.2-0.2c0.1,0,0.2-0.1,0.4-0.1c0.2,0,0.4,0,0.7,0c0.3,0,0.5,0,0.7,0c0.2,0,0.3,0.1,0.3,0.1
		c0.1,0.1,0.1,0.2,0.1,0.3s0,0.3-0.1,0.6L467.9,311.9z"/>
	<path class="st3" d="M479.9,307.6c0,0.3-0.1,0.5-0.2,0.7c-0.1,0.1-0.3,0.2-0.6,0.2h-5.3c0,0.4,0,0.7,0.1,1c0.1,0.3,0.2,0.6,0.4,0.8
		s0.4,0.4,0.7,0.5s0.7,0.2,1.1,0.2c0.4,0,0.8,0,1.1-0.1c0.3-0.1,0.6-0.1,0.8-0.2c0.2-0.1,0.4-0.1,0.6-0.2c0.2-0.1,0.3-0.1,0.4-0.1
		c0.1,0,0.1,0,0.1,0c0,0,0.1,0.1,0.1,0.1c0,0.1,0,0.1,0.1,0.2s0,0.2,0,0.4c0,0.1,0,0.3,0,0.4c0,0.1,0,0.2,0,0.3s0,0.1-0.1,0.2
		c0,0-0.1,0.1-0.1,0.1s-0.2,0.1-0.3,0.2c-0.2,0.1-0.4,0.2-0.7,0.2s-0.6,0.1-1,0.2s-0.8,0.1-1.2,0.1c-0.8,0-1.5-0.1-2-0.3
		s-1.1-0.5-1.5-0.9c-0.4-0.4-0.7-0.9-0.9-1.5s-0.3-1.3-0.3-2.1c0-0.8,0.1-1.5,0.3-2.1s0.5-1.2,0.9-1.6c0.4-0.4,0.9-0.8,1.4-1
		c0.6-0.2,1.2-0.3,1.9-0.3c0.7,0,1.4,0.1,1.9,0.3s0.9,0.5,1.3,0.9s0.6,0.8,0.7,1.4c0.2,0.5,0.2,1.1,0.2,1.7V307.6z M477.6,306.9
		c0-0.7-0.1-1.2-0.4-1.6c-0.3-0.4-0.8-0.6-1.4-0.6c-0.3,0-0.6,0.1-0.8,0.2c-0.2,0.1-0.4,0.3-0.6,0.5c-0.2,0.2-0.3,0.4-0.4,0.7
		s-0.1,0.6-0.1,0.9H477.6z"/>
	<path class="st3" d="M490.8,307.7c0,0.8-0.1,1.5-0.3,2.1c-0.2,0.6-0.4,1.2-0.7,1.6c-0.3,0.4-0.7,0.8-1.2,1c-0.5,0.2-1,0.4-1.6,0.4
		c-0.3,0-0.6,0-0.8-0.1c-0.3-0.1-0.5-0.1-0.7-0.3c-0.2-0.1-0.5-0.3-0.7-0.5c-0.2-0.2-0.5-0.4-0.7-0.7v1c0,0.1,0,0.1-0.1,0.2
		c0,0-0.1,0.1-0.2,0.1c-0.1,0-0.2,0.1-0.3,0.1c-0.1,0-0.3,0-0.5,0c-0.2,0-0.4,0-0.5,0c-0.1,0-0.2,0-0.3-0.1c-0.1,0-0.1-0.1-0.2-0.1
		c0,0,0-0.1,0-0.2v-12.9c0-0.1,0-0.1,0.1-0.2c0-0.1,0.1-0.1,0.2-0.1c0.1,0,0.2-0.1,0.4-0.1c0.2,0,0.4,0,0.6,0s0.4,0,0.6,0
		c0.2,0,0.3,0,0.4,0.1c0.1,0,0.2,0.1,0.2,0.1c0,0.1,0.1,0.1,0.1,0.2v4.8c0.2-0.2,0.4-0.4,0.7-0.6c0.2-0.2,0.4-0.3,0.7-0.4
		c0.2-0.1,0.5-0.2,0.7-0.2c0.2,0,0.5-0.1,0.7-0.1c0.6,0,1.2,0.1,1.6,0.4c0.5,0.3,0.8,0.6,1.1,1c0.3,0.4,0.5,1,0.6,1.5
		C490.7,306.4,490.8,307.1,490.8,307.7z M488.2,307.9c0-0.4,0-0.7-0.1-1.1c-0.1-0.3-0.2-0.7-0.3-0.9c-0.1-0.3-0.3-0.5-0.5-0.6
		c-0.2-0.2-0.5-0.2-0.8-0.2c-0.2,0-0.3,0-0.5,0.1c-0.2,0-0.3,0.1-0.5,0.2c-0.2,0.1-0.3,0.3-0.5,0.4c-0.2,0.2-0.4,0.4-0.6,0.7v2.9
		c0.3,0.4,0.7,0.8,1,1s0.6,0.3,1,0.3c0.3,0,0.6-0.1,0.8-0.2c0.2-0.2,0.4-0.4,0.6-0.6c0.1-0.3,0.3-0.6,0.3-0.9
		C488.2,308.5,488.2,308.2,488.2,307.9z"/>
	<path class="st3" d="M507.9,311.6c0.1,0.2,0.1,0.4,0.1,0.6s0,0.2-0.1,0.3c-0.1,0.1-0.2,0.1-0.4,0.1c-0.2,0-0.4,0-0.8,0
		c-0.3,0-0.6,0-0.8,0c-0.2,0-0.3,0-0.4-0.1s-0.2-0.1-0.2-0.1c0-0.1-0.1-0.1-0.1-0.2l-0.9-2.6h-4.8l-0.8,2.5c0,0.1-0.1,0.2-0.1,0.2
		c0,0.1-0.1,0.1-0.2,0.1s-0.2,0.1-0.4,0.1c-0.2,0-0.4,0-0.7,0c-0.3,0-0.5,0-0.7,0c-0.2,0-0.3-0.1-0.4-0.1c-0.1-0.1-0.1-0.2-0.1-0.3
		c0-0.1,0.1-0.3,0.1-0.5l3.9-11.3c0-0.1,0.1-0.2,0.1-0.3c0.1-0.1,0.1-0.1,0.2-0.2s0.3-0.1,0.5-0.1c0.2,0,0.5,0,0.8,0
		c0.4,0,0.7,0,0.9,0c0.2,0,0.4,0,0.5,0.1s0.2,0.1,0.3,0.2c0.1,0.1,0.1,0.2,0.1,0.3L507.9,311.6z M502,302.3L502,302.3l-1.8,5.4h3.6
		L502,302.3z"/>
	<path class="st3" d="M518.3,307.7c0,0.8-0.1,1.5-0.3,2.1c-0.2,0.6-0.4,1.2-0.7,1.6c-0.3,0.4-0.7,0.8-1.2,1c-0.5,0.2-1,0.4-1.6,0.4
		c-0.3,0-0.5,0-0.7-0.1s-0.4-0.1-0.6-0.2c-0.2-0.1-0.4-0.2-0.6-0.4s-0.4-0.3-0.6-0.5v4.1c0,0.1,0,0.1-0.1,0.2c0,0.1-0.1,0.1-0.2,0.1
		c-0.1,0-0.2,0.1-0.4,0.1c-0.2,0-0.4,0-0.6,0s-0.4,0-0.6,0c-0.2,0-0.3,0-0.4-0.1c-0.1,0-0.2-0.1-0.2-0.1c0-0.1-0.1-0.1-0.1-0.2
		v-12.2c0-0.1,0-0.1,0-0.2c0,0,0.1-0.1,0.2-0.1c0.1,0,0.2-0.1,0.3-0.1c0.1,0,0.3,0,0.5,0c0.2,0,0.4,0,0.5,0c0.1,0,0.2,0,0.3,0.1
		c0.1,0,0.1,0.1,0.2,0.1c0,0,0,0.1,0,0.2v1c0.3-0.3,0.5-0.5,0.8-0.7s0.5-0.4,0.8-0.5c0.3-0.1,0.5-0.2,0.8-0.3s0.6-0.1,0.9-0.1
		c0.6,0,1.2,0.1,1.6,0.4c0.5,0.3,0.8,0.6,1.1,1c0.3,0.4,0.5,0.9,0.6,1.5S518.3,307,518.3,307.7z M515.7,307.9c0-0.4,0-0.7-0.1-1.1
		c-0.1-0.3-0.2-0.6-0.3-0.9c-0.1-0.3-0.3-0.5-0.5-0.6c-0.2-0.2-0.5-0.2-0.8-0.2c-0.2,0-0.3,0-0.5,0.1c-0.2,0-0.3,0.1-0.5,0.2
		s-0.3,0.3-0.5,0.4s-0.4,0.4-0.6,0.7v2.9c0.3,0.4,0.7,0.8,1,1c0.3,0.2,0.6,0.4,1,0.4c0.3,0,0.6-0.1,0.8-0.2c0.2-0.2,0.4-0.4,0.6-0.6
		c0.1-0.3,0.3-0.6,0.3-0.9C515.7,308.5,515.7,308.2,515.7,307.9z"/>
	<path class="st3" d="M529.1,307.7c0,0.8-0.1,1.5-0.3,2.1c-0.2,0.6-0.4,1.2-0.7,1.6c-0.3,0.4-0.7,0.8-1.2,1c-0.5,0.2-1,0.4-1.6,0.4
		c-0.3,0-0.5,0-0.7-0.1s-0.4-0.1-0.6-0.2c-0.2-0.1-0.4-0.2-0.6-0.4s-0.4-0.3-0.6-0.5v4.1c0,0.1,0,0.1-0.1,0.2c0,0.1-0.1,0.1-0.2,0.1
		c-0.1,0-0.2,0.1-0.4,0.1c-0.2,0-0.4,0-0.6,0s-0.4,0-0.6,0c-0.2,0-0.3,0-0.4-0.1c-0.1,0-0.2-0.1-0.2-0.1c0-0.1-0.1-0.1-0.1-0.2
		v-12.2c0-0.1,0-0.1,0-0.2c0,0,0.1-0.1,0.2-0.1c0.1,0,0.2-0.1,0.3-0.1c0.1,0,0.3,0,0.5,0c0.2,0,0.4,0,0.5,0c0.1,0,0.2,0,0.3,0.1
		c0.1,0,0.1,0.1,0.2,0.1c0,0,0,0.1,0,0.2v1c0.3-0.3,0.5-0.5,0.8-0.7s0.5-0.4,0.8-0.5c0.3-0.1,0.5-0.2,0.8-0.3s0.6-0.1,0.9-0.1
		c0.6,0,1.2,0.1,1.6,0.4c0.5,0.3,0.8,0.6,1.1,1c0.3,0.4,0.5,0.9,0.6,1.5S529.1,307,529.1,307.7z M526.5,307.9c0-0.4,0-0.7-0.1-1.1
		c-0.1-0.3-0.2-0.6-0.3-0.9c-0.1-0.3-0.3-0.5-0.5-0.6c-0.2-0.2-0.5-0.2-0.8-0.2c-0.2,0-0.3,0-0.5,0.1c-0.2,0-0.3,0.1-0.5,0.2
		s-0.3,0.3-0.5,0.4s-0.4,0.4-0.6,0.7v2.9c0.3,0.4,0.7,0.8,1,1c0.3,0.2,0.6,0.4,1,0.4c0.3,0,0.6-0.1,0.8-0.2c0.2-0.2,0.4-0.4,0.6-0.6
		c0.1-0.3,0.3-0.6,0.3-0.9C526.5,308.5,526.5,308.2,526.5,307.9z"/>
	<path class="st3" d="M533.5,312.2c0,0.1,0,0.1-0.1,0.2c0,0-0.1,0.1-0.2,0.1c-0.1,0-0.2,0.1-0.4,0.1c-0.2,0-0.4,0-0.6,0
		s-0.4,0-0.6,0c-0.2,0-0.3,0-0.4-0.1c-0.1,0-0.2-0.1-0.2-0.1c0,0-0.1-0.1-0.1-0.2v-12.9c0-0.1,0-0.1,0.1-0.2c0-0.1,0.1-0.1,0.2-0.1
		c0.1,0,0.2-0.1,0.4-0.1c0.2,0,0.4,0,0.6,0s0.4,0,0.6,0c0.2,0,0.3,0,0.4,0.1c0.1,0,0.2,0.1,0.2,0.1c0,0.1,0.1,0.1,0.1,0.2V312.2z"/>
	<path class="st3" d="M538.6,300.5c0,0.5-0.1,0.8-0.3,1s-0.6,0.3-1.1,0.3c-0.6,0-0.9-0.1-1.1-0.3c-0.2-0.2-0.3-0.5-0.3-1
		c0-0.5,0.1-0.8,0.3-1c0.2-0.2,0.6-0.3,1.1-0.3c0.5,0,0.9,0.1,1.1,0.3S538.6,300,538.6,300.5z M538.5,312.2c0,0.1,0,0.1-0.1,0.2
		c0,0-0.1,0.1-0.2,0.1c-0.1,0-0.2,0.1-0.4,0.1c-0.2,0-0.4,0-0.6,0s-0.4,0-0.6,0c-0.2,0-0.3,0-0.4-0.1c-0.1,0-0.2-0.1-0.2-0.1
		c0,0-0.1-0.1-0.1-0.2v-8.7c0-0.1,0-0.1,0.1-0.2c0,0,0.1-0.1,0.2-0.1c0.1,0,0.2-0.1,0.4-0.1c0.2,0,0.4,0,0.6,0s0.4,0,0.6,0
		c0.2,0,0.3,0,0.4,0.1c0.1,0,0.2,0.1,0.2,0.1c0,0,0.1,0.1,0.1,0.2V312.2z"/>
	<path class="st3" d="M547.5,310.8c0,0.2,0,0.3,0,0.4c0,0.1,0,0.2,0,0.3c0,0.1,0,0.1-0.1,0.2s-0.1,0.1-0.2,0.2
		c-0.1,0.1-0.2,0.2-0.4,0.3c-0.2,0.1-0.4,0.2-0.6,0.3s-0.5,0.2-0.8,0.2c-0.3,0.1-0.6,0.1-0.9,0.1c-0.7,0-1.3-0.1-1.8-0.3
		c-0.5-0.2-1-0.5-1.3-0.9c-0.4-0.4-0.6-0.9-0.8-1.5c-0.2-0.6-0.3-1.3-0.3-2c0-0.9,0.1-1.6,0.3-2.3c0.2-0.6,0.5-1.2,0.9-1.6
		s0.9-0.7,1.4-0.9c0.5-0.2,1.1-0.3,1.8-0.3c0.3,0,0.5,0,0.8,0.1c0.3,0,0.5,0.1,0.7,0.2c0.2,0.1,0.4,0.2,0.6,0.3
		c0.2,0.1,0.3,0.2,0.4,0.3c0.1,0.1,0.1,0.1,0.2,0.2c0,0,0.1,0.1,0.1,0.2c0,0.1,0,0.2,0,0.3s0,0.3,0,0.4c0,0.4,0,0.6-0.1,0.8
		c-0.1,0.2-0.2,0.2-0.3,0.2c-0.1,0-0.2,0-0.4-0.1c-0.1-0.1-0.3-0.2-0.4-0.3c-0.2-0.1-0.4-0.2-0.6-0.3c-0.2-0.1-0.5-0.1-0.8-0.1
		c-0.6,0-1.1,0.2-1.5,0.7c-0.3,0.5-0.5,1.2-0.5,2.2c0,0.5,0,0.9,0.1,1.2s0.2,0.7,0.4,0.9c0.2,0.2,0.4,0.4,0.6,0.5
		c0.3,0.1,0.5,0.2,0.9,0.2c0.3,0,0.6-0.1,0.9-0.2c0.2-0.1,0.5-0.2,0.6-0.3c0.2-0.1,0.3-0.2,0.5-0.3c0.1-0.1,0.2-0.2,0.3-0.2
		c0.1,0,0.1,0,0.1,0c0,0,0.1,0.1,0.1,0.2c0,0.1,0,0.2,0.1,0.3S547.5,310.6,547.5,310.8z"/>
	<path class="st3" d="M556.7,312.2c0,0.1,0,0.2-0.1,0.2c-0.1,0.1-0.2,0.1-0.3,0.1c-0.1,0-0.3,0-0.6,0c-0.3,0-0.5,0-0.6,0
		c-0.1,0-0.2-0.1-0.3-0.1c-0.1-0.1-0.1-0.1-0.1-0.2v-0.7c-0.4,0.4-0.8,0.7-1.2,0.9c-0.5,0.2-1,0.3-1.5,0.3c-0.5,0-0.9-0.1-1.3-0.2
		c-0.4-0.1-0.7-0.3-1-0.5c-0.3-0.2-0.5-0.5-0.7-0.9c-0.2-0.4-0.2-0.8-0.2-1.2c0-0.5,0.1-1,0.3-1.3c0.2-0.4,0.5-0.7,0.9-0.9
		c0.4-0.2,0.9-0.4,1.5-0.5c0.6-0.1,1.3-0.2,2.1-0.2h0.9v-0.5c0-0.3,0-0.5-0.1-0.7c-0.1-0.2-0.1-0.4-0.3-0.5s-0.3-0.2-0.5-0.3
		c-0.2-0.1-0.5-0.1-0.8-0.1c-0.4,0-0.8,0-1.1,0.1c-0.3,0.1-0.6,0.2-0.9,0.3s-0.5,0.2-0.6,0.3c-0.2,0.1-0.3,0.1-0.4,0.1
		c-0.1,0-0.1,0-0.2-0.1s-0.1-0.1-0.1-0.2c0-0.1-0.1-0.2-0.1-0.3c0-0.1,0-0.3,0-0.4c0-0.2,0-0.4,0-0.5s0.1-0.2,0.2-0.3
		c0.1-0.1,0.3-0.2,0.5-0.3c0.2-0.1,0.5-0.2,0.8-0.3c0.3-0.1,0.6-0.2,1-0.2c0.4-0.1,0.7-0.1,1.1-0.1c0.7,0,1.3,0.1,1.8,0.2
		c0.5,0.1,0.9,0.3,1.2,0.6c0.3,0.3,0.5,0.6,0.7,1.1s0.2,1,0.2,1.6V312.2z M554.3,308.5h-0.9c-0.4,0-0.7,0-1,0.1
		c-0.3,0.1-0.5,0.1-0.7,0.3c-0.2,0.1-0.3,0.3-0.4,0.4c-0.1,0.2-0.1,0.4-0.1,0.6c0,0.4,0.1,0.7,0.3,0.9c0.2,0.2,0.6,0.3,1,0.3
		c0.3,0,0.7-0.1,1-0.3s0.6-0.4,0.9-0.8V308.5z"/>
	<path class="st3" d="M567.5,303.1c0.3,0,0.5,0.1,0.6,0.2c0.1,0.1,0.2,0.3,0.2,0.5v8.4c0,0.1,0,0.1-0.1,0.2c0,0-0.1,0.1-0.2,0.1
		c-0.1,0-0.2,0.1-0.4,0.1s-0.4,0-0.6,0c-0.2,0-0.4,0-0.6,0s-0.3,0-0.4-0.1c-0.1,0-0.2-0.1-0.2-0.1c0,0-0.1-0.1-0.1-0.2v-7.1h-3.9
		v4.1c0,0.5,0.1,0.8,0.2,1.1c0.2,0.2,0.4,0.4,0.8,0.4c0.1,0,0.2,0,0.4,0c0.1,0,0.2,0,0.3-0.1c0.1,0,0.2-0.1,0.2-0.1
		c0.1,0,0.1,0,0.2,0c0,0,0.1,0,0.1,0c0,0,0.1,0.1,0.1,0.1c0,0.1,0,0.2,0.1,0.3c0,0.1,0,0.3,0,0.5c0,0.3,0,0.5,0,0.7
		c0,0.1-0.1,0.3-0.1,0.3c-0.1,0.1-0.1,0.1-0.3,0.2c-0.1,0-0.3,0.1-0.4,0.1c-0.2,0-0.3,0.1-0.5,0.1c-0.2,0-0.4,0-0.5,0
		c-0.5,0-0.9-0.1-1.3-0.2c-0.4-0.1-0.7-0.3-0.9-0.6c-0.2-0.3-0.4-0.6-0.5-1c-0.1-0.4-0.2-0.9-0.2-1.4v-4.5h-1
		c-0.1,0-0.2-0.1-0.3-0.2c-0.1-0.2-0.1-0.4-0.1-0.8c0-0.2,0-0.4,0-0.5c0-0.1,0-0.2,0.1-0.3s0.1-0.1,0.1-0.2c0,0,0.1,0,0.2,0h1v-2
		c0-0.1,0-0.1,0.1-0.2c0-0.1,0.1-0.1,0.2-0.1c0.1,0,0.2-0.1,0.4-0.1c0.2,0,0.4,0,0.6,0c0.2,0,0.4,0,0.6,0c0.2,0,0.3,0,0.4,0.1
		c0.1,0,0.2,0.1,0.2,0.1c0,0.1,0.1,0.1,0.1,0.2v2H567.5z M568.4,300.5c0,0.5-0.1,0.8-0.3,1s-0.6,0.3-1.1,0.3c-0.6,0-0.9-0.1-1.1-0.3
		c-0.2-0.2-0.3-0.5-0.3-1c0-0.5,0.1-0.8,0.3-1c0.2-0.2,0.6-0.3,1.1-0.3c0.5,0,0.9,0.1,1.1,0.3S568.4,300,568.4,300.5z"/>
	<path class="st3" d="M579.6,307.7c0,0.7-0.1,1.4-0.3,2c-0.2,0.6-0.5,1.1-0.9,1.6c-0.4,0.4-0.9,0.8-1.5,1c-0.6,0.2-1.3,0.4-2.1,0.4
		c-0.8,0-1.5-0.1-2-0.3c-0.6-0.2-1.1-0.5-1.4-0.9s-0.7-0.9-0.8-1.5c-0.2-0.6-0.3-1.3-0.3-2.1c0-0.7,0.1-1.4,0.3-2
		c0.2-0.6,0.5-1.1,0.9-1.6c0.4-0.4,0.9-0.8,1.5-1c0.6-0.2,1.3-0.4,2.1-0.4c0.8,0,1.5,0.1,2,0.3c0.6,0.2,1.1,0.5,1.4,0.9
		c0.4,0.4,0.7,0.9,0.8,1.5C579.5,306.3,579.6,307,579.6,307.7z M577,307.8c0-0.4,0-0.8-0.1-1.2s-0.2-0.7-0.3-0.9
		c-0.2-0.3-0.4-0.5-0.7-0.6c-0.3-0.2-0.6-0.2-1-0.2c-0.4,0-0.7,0.1-1,0.2c-0.3,0.1-0.5,0.3-0.7,0.6c-0.2,0.3-0.3,0.6-0.4,0.9
		c-0.1,0.4-0.1,0.8-0.1,1.2c0,0.4,0,0.8,0.1,1.2c0.1,0.4,0.2,0.7,0.3,0.9c0.2,0.3,0.4,0.5,0.7,0.6c0.3,0.1,0.6,0.2,1,0.2
		c0.4,0,0.7-0.1,1-0.2c0.3-0.1,0.5-0.3,0.7-0.6c0.2-0.3,0.3-0.6,0.4-0.9S577,308.3,577,307.8z"/>
	<path class="st3" d="M589.9,312.2c0,0.1,0,0.1-0.1,0.2c0,0-0.1,0.1-0.2,0.1c-0.1,0-0.2,0.1-0.4,0.1s-0.4,0-0.6,0
		c-0.2,0-0.4,0-0.6,0s-0.3,0-0.4-0.1c-0.1,0-0.2-0.1-0.2-0.1c0,0-0.1-0.1-0.1-0.2v-5c0-0.4,0-0.8-0.1-1s-0.2-0.5-0.3-0.6
		c-0.1-0.2-0.3-0.3-0.5-0.4s-0.4-0.1-0.7-0.1c-0.3,0-0.6,0.1-1,0.3c-0.3,0.2-0.7,0.6-1,1v5.8c0,0.1,0,0.1-0.1,0.2
		c0,0-0.1,0.1-0.2,0.1c-0.1,0-0.2,0.1-0.4,0.1c-0.2,0-0.4,0-0.6,0s-0.4,0-0.6,0c-0.2,0-0.3,0-0.4-0.1c-0.1,0-0.2-0.1-0.2-0.1
		c0,0-0.1-0.1-0.1-0.2v-8.8c0-0.1,0-0.1,0-0.2c0,0,0.1-0.1,0.2-0.1c0.1,0,0.2-0.1,0.3-0.1c0.1,0,0.3,0,0.5,0c0.2,0,0.4,0,0.5,0
		c0.1,0,0.2,0,0.3,0.1c0.1,0,0.1,0.1,0.2,0.1c0,0,0,0.1,0,0.2v1c0.5-0.5,1-0.9,1.5-1.2s1-0.4,1.6-0.4c0.6,0,1.1,0.1,1.5,0.3
		c0.4,0.2,0.7,0.5,1,0.8s0.4,0.7,0.5,1.2c0.1,0.5,0.2,1,0.2,1.6V312.2z"/>
	<path class="st3" d="M604.1,300.9c0,0.2,0,0.4,0,0.5c0,0.1,0,0.2-0.1,0.3c0,0.1-0.1,0.1-0.1,0.2s-0.1,0.1-0.2,0.1h-4.2v3.4h3.9
		c0.1,0,0.1,0,0.2,0c0,0,0.1,0.1,0.1,0.2c0,0.1,0.1,0.2,0.1,0.3c0,0.1,0,0.3,0,0.5s0,0.4,0,0.5c0,0.1,0,0.2-0.1,0.3
		s-0.1,0.1-0.1,0.2c0,0-0.1,0.1-0.2,0.1h-3.9v4.7c0,0.1,0,0.1-0.1,0.2c0,0.1-0.1,0.1-0.2,0.1s-0.2,0.1-0.4,0.1s-0.4,0-0.6,0
		c-0.2,0-0.5,0-0.6,0c-0.2,0-0.3,0-0.4-0.1s-0.2-0.1-0.2-0.1c0-0.1-0.1-0.1-0.1-0.2v-11.5c0-0.3,0.1-0.5,0.2-0.6
		c0.1-0.1,0.3-0.2,0.5-0.2h6c0.1,0,0.1,0,0.2,0.1s0.1,0.1,0.1,0.2c0,0.1,0.1,0.2,0.1,0.3C604.1,300.5,604.1,300.7,604.1,300.9z"/>
	<path class="st3" d="M608.7,300.5c0,0.5-0.1,0.8-0.3,1c-0.2,0.2-0.6,0.3-1.1,0.3c-0.6,0-0.9-0.1-1.1-0.3c-0.2-0.2-0.3-0.5-0.3-1
		c0-0.5,0.1-0.8,0.3-1c0.2-0.2,0.6-0.3,1.1-0.3c0.5,0,0.9,0.1,1.1,0.3S608.7,300,608.7,300.5z M608.5,312.2c0,0.1,0,0.1-0.1,0.2
		c0,0-0.1,0.1-0.2,0.1c-0.1,0-0.2,0.1-0.4,0.1s-0.4,0-0.6,0s-0.4,0-0.6,0s-0.3,0-0.4-0.1c-0.1,0-0.2-0.1-0.2-0.1s-0.1-0.1-0.1-0.2
		v-8.7c0-0.1,0-0.1,0.1-0.2c0,0,0.1-0.1,0.2-0.1s0.2-0.1,0.4-0.1s0.4,0,0.6,0s0.4,0,0.6,0s0.3,0,0.4,0.1c0.1,0,0.2,0.1,0.2,0.1
		c0,0,0.1,0.1,0.1,0.2V312.2z"/>
	<path class="st3" d="M616.6,304.3c0,0.2,0,0.4,0,0.6c0,0.2,0,0.3-0.1,0.4s-0.1,0.1-0.1,0.2c0,0-0.1,0-0.2,0c-0.1,0-0.1,0-0.2,0
		s-0.1,0-0.2-0.1c-0.1,0-0.2-0.1-0.3-0.1c-0.1,0-0.2,0-0.3,0c-0.1,0-0.3,0-0.4,0.1c-0.1,0.1-0.3,0.1-0.4,0.3
		c-0.1,0.1-0.3,0.3-0.5,0.5c-0.2,0.2-0.3,0.4-0.5,0.7v5.5c0,0.1,0,0.1-0.1,0.2c0,0-0.1,0.1-0.2,0.1c-0.1,0-0.2,0.1-0.4,0.1
		s-0.4,0-0.6,0s-0.4,0-0.6,0s-0.3,0-0.4-0.1c-0.1,0-0.2-0.1-0.2-0.1s-0.1-0.1-0.1-0.2v-8.8c0-0.1,0-0.1,0-0.2c0,0,0.1-0.1,0.2-0.1
		c0.1,0,0.2-0.1,0.3-0.1c0.1,0,0.3,0,0.5,0c0.2,0,0.4,0,0.5,0c0.1,0,0.2,0,0.3,0.1c0.1,0,0.1,0.1,0.2,0.1c0,0,0,0.1,0,0.2v1.1
		c0.2-0.3,0.4-0.6,0.6-0.8c0.2-0.2,0.4-0.4,0.6-0.5c0.2-0.1,0.4-0.2,0.5-0.3c0.2,0,0.4-0.1,0.5-0.1c0.1,0,0.2,0,0.3,0
		c0.1,0,0.2,0,0.3,0c0.1,0,0.2,0,0.3,0.1c0.1,0,0.1,0.1,0.2,0.1c0,0,0.1,0.1,0.1,0.1c0,0,0,0.1,0,0.2c0,0.1,0,0.2,0,0.3
		C616.6,303.8,616.6,304,616.6,304.3z"/>
	<path class="st3" d="M626,307.6c0,0.3-0.1,0.5-0.2,0.7c-0.1,0.1-0.3,0.2-0.6,0.2h-5.3c0,0.4,0,0.7,0.1,1c0.1,0.3,0.2,0.6,0.4,0.8
		c0.2,0.2,0.4,0.4,0.7,0.5c0.3,0.1,0.7,0.2,1.1,0.2c0.4,0,0.8,0,1.1-0.1c0.3-0.1,0.6-0.1,0.8-0.2c0.2-0.1,0.4-0.1,0.6-0.2
		c0.2-0.1,0.3-0.1,0.4-0.1c0.1,0,0.1,0,0.1,0c0,0,0.1,0.1,0.1,0.1s0,0.1,0.1,0.2s0,0.2,0,0.4c0,0.1,0,0.3,0,0.4c0,0.1,0,0.2,0,0.3
		c0,0.1,0,0.1-0.1,0.2s-0.1,0.1-0.1,0.1c0,0-0.2,0.1-0.3,0.2c-0.2,0.1-0.4,0.2-0.7,0.2c-0.3,0.1-0.6,0.1-1,0.2
		c-0.4,0.1-0.8,0.1-1.2,0.1c-0.8,0-1.5-0.1-2-0.3c-0.6-0.2-1.1-0.5-1.5-0.9c-0.4-0.4-0.7-0.9-0.9-1.5c-0.2-0.6-0.3-1.3-0.3-2.1
		c0-0.8,0.1-1.5,0.3-2.1c0.2-0.6,0.5-1.2,0.9-1.6c0.4-0.4,0.9-0.8,1.4-1c0.6-0.2,1.2-0.3,1.9-0.3c0.7,0,1.4,0.1,1.9,0.3
		c0.5,0.2,0.9,0.5,1.3,0.9c0.3,0.4,0.6,0.8,0.7,1.4c0.2,0.5,0.2,1.1,0.2,1.7V307.6z M623.6,306.9c0-0.7-0.1-1.2-0.4-1.6
		c-0.3-0.4-0.8-0.6-1.4-0.6c-0.3,0-0.6,0.1-0.8,0.2c-0.2,0.1-0.4,0.3-0.6,0.5c-0.2,0.2-0.3,0.4-0.4,0.7s-0.1,0.6-0.1,0.9H623.6z"/>
	<path class="st3" d="M641.3,303.4c0,0.1,0,0.2,0,0.3s-0.1,0.3-0.1,0.5l-2.3,7.9c0,0.1-0.1,0.2-0.1,0.3c-0.1,0.1-0.1,0.1-0.2,0.2
		c-0.1,0-0.3,0.1-0.5,0.1c-0.2,0-0.5,0-0.8,0c-0.3,0-0.6,0-0.8,0c-0.2,0-0.4,0-0.5-0.1s-0.2-0.1-0.2-0.2s-0.1-0.2-0.1-0.3l-1.5-5.3
		l0-0.1l0,0.1l-1.4,5.3c0,0.1-0.1,0.2-0.1,0.3s-0.1,0.1-0.2,0.2c-0.1,0-0.3,0.1-0.5,0.1c-0.2,0-0.5,0-0.8,0c-0.3,0-0.6,0-0.8,0
		c-0.2,0-0.4,0-0.5-0.1s-0.2-0.1-0.2-0.2s-0.1-0.2-0.1-0.3l-2.3-7.9c-0.1-0.2-0.1-0.3-0.1-0.4c0-0.1,0-0.2,0-0.3
		c0-0.1,0-0.1,0.1-0.2c0,0,0.1-0.1,0.2-0.1c0.1,0,0.2-0.1,0.4-0.1c0.2,0,0.4,0,0.6,0c0.3,0,0.5,0,0.6,0c0.2,0,0.3,0,0.4,0.1
		c0.1,0,0.2,0.1,0.2,0.1c0,0.1,0.1,0.1,0.1,0.2l1.7,6.4l0,0.1l0-0.1l1.6-6.4c0-0.1,0-0.1,0.1-0.2s0.1-0.1,0.2-0.1s0.2-0.1,0.4-0.1
		c0.2,0,0.4,0,0.6,0c0.2,0,0.4,0,0.6,0c0.2,0,0.3,0,0.4,0.1c0.1,0,0.2,0.1,0.2,0.1c0,0,0.1,0.1,0.1,0.2l1.7,6.5l0,0.1l0-0.1l1.7-6.4
		c0-0.1,0-0.1,0.1-0.2s0.1-0.1,0.2-0.1s0.2-0.1,0.4-0.1c0.2,0,0.4,0,0.6,0c0.2,0,0.4,0,0.6,0c0.2,0,0.3,0,0.4,0.1
		c0.1,0,0.1,0.1,0.2,0.1C641.3,303.3,641.3,303.4,641.3,303.4z"/>
	<path class="st3" d="M650.2,312.2c0,0.1,0,0.2-0.1,0.2c-0.1,0.1-0.2,0.1-0.3,0.1c-0.1,0-0.3,0-0.6,0c-0.3,0-0.5,0-0.6,0
		c-0.1,0-0.2-0.1-0.3-0.1c-0.1-0.1-0.1-0.1-0.1-0.2v-0.7c-0.4,0.4-0.8,0.7-1.2,0.9c-0.5,0.2-1,0.3-1.5,0.3c-0.5,0-0.9-0.1-1.3-0.2
		s-0.7-0.3-1-0.5c-0.3-0.2-0.5-0.5-0.7-0.9s-0.2-0.8-0.2-1.2c0-0.5,0.1-1,0.3-1.3c0.2-0.4,0.5-0.7,0.9-0.9c0.4-0.2,0.9-0.4,1.5-0.5
		c0.6-0.1,1.3-0.2,2.1-0.2h0.9v-0.5c0-0.3,0-0.5-0.1-0.7c-0.1-0.2-0.1-0.4-0.3-0.5c-0.1-0.1-0.3-0.2-0.5-0.3
		c-0.2-0.1-0.5-0.1-0.8-0.1c-0.4,0-0.8,0-1.1,0.1c-0.3,0.1-0.6,0.2-0.9,0.3c-0.2,0.1-0.5,0.2-0.6,0.3c-0.2,0.1-0.3,0.1-0.4,0.1
		c-0.1,0-0.1,0-0.2-0.1s-0.1-0.1-0.1-0.2c0-0.1-0.1-0.2-0.1-0.3c0-0.1,0-0.3,0-0.4c0-0.2,0-0.4,0-0.5c0-0.1,0.1-0.2,0.2-0.3
		c0.1-0.1,0.3-0.2,0.5-0.3c0.2-0.1,0.5-0.2,0.8-0.3c0.3-0.1,0.6-0.2,1-0.2c0.4-0.1,0.7-0.1,1.1-0.1c0.7,0,1.3,0.1,1.8,0.2
		c0.5,0.1,0.9,0.3,1.2,0.6c0.3,0.3,0.5,0.6,0.7,1.1c0.1,0.4,0.2,1,0.2,1.6V312.2z M647.7,308.5h-0.9c-0.4,0-0.7,0-1,0.1
		c-0.3,0.1-0.5,0.1-0.7,0.3c-0.2,0.1-0.3,0.3-0.4,0.4s-0.1,0.4-0.1,0.6c0,0.4,0.1,0.7,0.3,0.9s0.6,0.3,1,0.3c0.3,0,0.7-0.1,1-0.3
		s0.6-0.4,0.9-0.8V308.5z"/>
	<path class="st3" d="M655.1,312.2c0,0.1,0,0.1-0.1,0.2c0,0-0.1,0.1-0.2,0.1c-0.1,0-0.2,0.1-0.4,0.1s-0.4,0-0.6,0s-0.4,0-0.6,0
		s-0.3,0-0.4-0.1c-0.1,0-0.2-0.1-0.2-0.1s-0.1-0.1-0.1-0.2v-12.9c0-0.1,0-0.1,0.1-0.2c0-0.1,0.1-0.1,0.2-0.1c0.1,0,0.2-0.1,0.4-0.1
		s0.4,0,0.6,0s0.4,0,0.6,0s0.3,0,0.4,0.1c0.1,0,0.2,0.1,0.2,0.1c0,0.1,0.1,0.1,0.1,0.2V312.2z"/>
	<path class="st3" d="M660,312.2c0,0.1,0,0.1-0.1,0.2s-0.1,0.1-0.2,0.1c-0.1,0-0.2,0.1-0.4,0.1c-0.2,0-0.4,0-0.6,0s-0.4,0-0.6,0
		c-0.2,0-0.3,0-0.4-0.1c-0.1,0-0.2-0.1-0.2-0.1c0,0-0.1-0.1-0.1-0.2v-12.9c0-0.1,0-0.1,0.1-0.2c0-0.1,0.1-0.1,0.2-0.1
		c0.1,0,0.2-0.1,0.4-0.1c0.2,0,0.4,0,0.6,0s0.4,0,0.6,0c0.2,0,0.3,0,0.4,0.1c0.1,0,0.2,0.1,0.2,0.1c0,0.1,0.1,0.1,0.1,0.2V312.2z"/>
	<path class="st3" d="M671.1,299.1c-0.5,1.3-1,2.6-1.2,4s-0.4,2.7-0.4,4.2c0,1.4,0.1,2.8,0.4,4.2c0.3,1.4,0.7,2.7,1.2,4
		c0,0.1,0.1,0.2,0.1,0.3s0,0.1-0.1,0.2c-0.1,0.1-0.2,0.1-0.3,0.1c-0.1,0-0.4,0-0.6,0c-0.2,0-0.3,0-0.5,0c-0.1,0-0.2,0-0.3-0.1
		c-0.1,0-0.2-0.1-0.2-0.1c0,0-0.1-0.1-0.1-0.1c-0.4-0.7-0.7-1.4-0.9-2.1c-0.3-0.7-0.5-1.4-0.7-2.1c-0.2-0.7-0.3-1.4-0.4-2.1
		c-0.1-0.7-0.1-1.4-0.1-2.2c0-0.7,0-1.5,0.1-2.2c0.1-0.7,0.2-1.4,0.4-2.1c0.2-0.7,0.4-1.4,0.7-2.1c0.3-0.7,0.6-1.4,0.9-2.1
		c0,0,0-0.1,0.1-0.1c0,0,0.1-0.1,0.2-0.1c0.1,0,0.2,0,0.3,0c0.1,0,0.3,0,0.5,0c0.2,0,0.4,0,0.6,0c0.2,0,0.3,0.1,0.3,0.1
		s0.1,0.1,0.1,0.2S671.1,299,671.1,299.1z"/>
	<path class="st3" d="M686.8,311.9c0,0.2-0.1,0.3-0.2,0.4c-0.1,0.1-0.2,0.2-0.3,0.2c-0.1,0-0.3,0.1-0.5,0.1s-0.5,0-0.8,0
		c-0.4,0-0.7,0-0.9,0s-0.4,0-0.5-0.1c-0.1,0-0.2-0.1-0.3-0.2c-0.1-0.1-0.1-0.2-0.1-0.4l-2-8h0l-1.9,8c0,0.2-0.1,0.3-0.1,0.4
		c-0.1,0.1-0.2,0.2-0.3,0.2c-0.1,0.1-0.3,0.1-0.5,0.1c-0.2,0-0.5,0-0.9,0c-0.4,0-0.7,0-0.9,0s-0.4,0-0.5-0.1c-0.1,0-0.2-0.1-0.3-0.2
		c-0.1-0.1-0.1-0.2-0.1-0.4l-2.9-11.1c-0.1-0.2-0.1-0.4-0.1-0.6c0-0.1,0-0.2,0.1-0.3c0.1-0.1,0.2-0.1,0.4-0.1c0.2,0,0.4,0,0.8,0
		c0.3,0,0.6,0,0.7,0c0.2,0,0.3,0,0.4,0.1s0.2,0.1,0.2,0.2c0,0.1,0.1,0.2,0.1,0.3l2.2,9.7h0l2.3-9.7c0-0.1,0.1-0.2,0.1-0.3
		c0-0.1,0.1-0.1,0.2-0.2c0.1,0,0.2-0.1,0.4-0.1c0.2,0,0.4,0,0.7,0c0.3,0,0.6,0,0.8,0c0.2,0,0.3,0,0.4,0.1s0.2,0.1,0.2,0.2
		c0,0.1,0.1,0.2,0.1,0.3l2.4,9.7h0l2.2-9.7c0-0.1,0-0.2,0.1-0.3c0-0.1,0.1-0.1,0.2-0.2c0.1,0,0.2-0.1,0.4-0.1c0.2,0,0.4,0,0.7,0
		c0.3,0,0.5,0,0.7,0c0.2,0,0.3,0.1,0.3,0.1c0.1,0.1,0.1,0.2,0.1,0.3s0,0.3-0.1,0.6L686.8,311.9z"/>
	<path class="st3" d="M701.1,311.6c0.1,0.2,0.1,0.4,0.1,0.6s0,0.2-0.1,0.3c-0.1,0.1-0.2,0.1-0.4,0.1c-0.2,0-0.4,0-0.8,0
		c-0.3,0-0.6,0-0.8,0s-0.3,0-0.4-0.1c-0.1,0-0.2-0.1-0.2-0.1c0-0.1-0.1-0.1-0.1-0.2l-0.9-2.6h-4.8l-0.8,2.5c0,0.1-0.1,0.2-0.1,0.2
		c0,0.1-0.1,0.1-0.2,0.1s-0.2,0.1-0.4,0.1c-0.2,0-0.4,0-0.7,0c-0.3,0-0.5,0-0.7,0c-0.2,0-0.3-0.1-0.4-0.1c-0.1-0.1-0.1-0.2-0.1-0.3
		c0-0.1,0.1-0.3,0.1-0.5l3.9-11.3c0-0.1,0.1-0.2,0.1-0.3c0.1-0.1,0.1-0.1,0.2-0.2s0.3-0.1,0.5-0.1c0.2,0,0.5,0,0.8,0
		c0.4,0,0.7,0,0.9,0c0.2,0,0.4,0,0.5,0.1c0.1,0,0.2,0.1,0.3,0.2c0.1,0.1,0.1,0.2,0.1,0.3L701.1,311.6z M695.3,302.3L695.3,302.3
		l-1.8,5.4h3.6L695.3,302.3z"/>
	<path class="st3" d="M710,300.9c0,0.2,0,0.4,0,0.5c0,0.1,0,0.2-0.1,0.3s-0.1,0.1-0.1,0.2s-0.1,0.1-0.2,0.1h-4.2v3.4h3.9
		c0.1,0,0.1,0,0.2,0c0,0,0.1,0.1,0.1,0.2c0,0.1,0.1,0.2,0.1,0.3s0,0.3,0,0.5s0,0.4,0,0.5s0,0.2-0.1,0.3c0,0.1-0.1,0.1-0.1,0.2
		s-0.1,0.1-0.2,0.1h-3.9v4.7c0,0.1,0,0.1-0.1,0.2c0,0.1-0.1,0.1-0.2,0.1s-0.2,0.1-0.4,0.1c-0.2,0-0.4,0-0.6,0c-0.2,0-0.5,0-0.6,0
		s-0.3,0-0.4-0.1c-0.1,0-0.2-0.1-0.2-0.1c0-0.1-0.1-0.1-0.1-0.2v-11.5c0-0.3,0.1-0.5,0.2-0.6c0.1-0.1,0.3-0.2,0.5-0.2h6
		c0.1,0,0.1,0,0.2,0.1s0.1,0.1,0.1,0.2s0.1,0.2,0.1,0.3C710,300.5,710,300.7,710,300.9z"/>
	<path class="st3" d="M715.9,307.3c0,0.7,0,1.5-0.1,2.2c-0.1,0.7-0.2,1.4-0.4,2.1c-0.2,0.7-0.4,1.4-0.6,2.1
		c-0.3,0.7-0.6,1.4-0.9,2.1c0,0-0.1,0.1-0.1,0.1s-0.1,0.1-0.2,0.1c-0.1,0-0.2,0-0.3,0.1c-0.1,0-0.3,0-0.5,0c-0.3,0-0.5,0-0.6,0
		c-0.1,0-0.3-0.1-0.3-0.1c-0.1-0.1-0.1-0.1-0.1-0.2s0-0.2,0.1-0.3c0.5-1.3,1-2.6,1.2-4c0.3-1.4,0.4-2.8,0.4-4.2
		c0-1.4-0.1-2.8-0.4-4.2s-0.7-2.7-1.3-4c0-0.1,0-0.2,0-0.2s0.1-0.1,0.1-0.2c0.1,0,0.2-0.1,0.3-0.1c0.1,0,0.3,0,0.6,0
		c0.2,0,0.4,0,0.5,0c0.1,0,0.2,0,0.3,0c0.1,0,0.1,0,0.2,0.1s0.1,0.1,0.1,0.1c0.7,1.4,1.2,2.8,1.5,4.2S715.9,305.8,715.9,307.3z"/>
</g>
<g class="st2">
	<path class="st3" d="M972,307.2c0,1-0.1,1.8-0.4,2.6c-0.2,0.8-0.6,1.4-1.1,1.9s-1.1,0.9-1.8,1.2c-0.7,0.3-1.5,0.4-2.4,0.4
		c-0.9,0-1.7-0.1-2.4-0.4c-0.7-0.2-1.2-0.6-1.7-1.1c-0.4-0.5-0.8-1.1-1-1.8c-0.2-0.7-0.3-1.6-0.3-2.7c0-0.9,0.1-1.8,0.4-2.5
		c0.2-0.7,0.6-1.4,1.1-1.9c0.5-0.5,1.1-0.9,1.8-1.2c0.7-0.3,1.5-0.4,2.4-0.4c0.9,0,1.7,0.1,2.3,0.3c0.7,0.2,1.2,0.6,1.7,1.1
		c0.5,0.5,0.8,1.1,1,1.8C971.9,305.3,972,306.2,972,307.2z M969.5,307.3c0-0.6,0-1.2-0.1-1.7c-0.1-0.5-0.3-0.9-0.5-1.3
		c-0.2-0.4-0.5-0.6-0.9-0.8c-0.4-0.2-0.9-0.3-1.4-0.3c-0.6,0-1.1,0.1-1.5,0.3c-0.4,0.2-0.7,0.5-0.9,0.9s-0.4,0.8-0.5,1.3
		c-0.1,0.5-0.1,1-0.1,1.5c0,0.6,0,1.2,0.1,1.7c0.1,0.5,0.3,0.9,0.5,1.3c0.2,0.4,0.5,0.6,0.9,0.8c0.4,0.2,0.9,0.3,1.4,0.3
		s1.1-0.1,1.5-0.3s0.7-0.5,0.9-0.9c0.2-0.4,0.4-0.8,0.5-1.3C969.5,308.4,969.5,307.9,969.5,307.3z"/>
	<path class="st3" d="M979,305.6c0,0.2,0,0.4,0,0.5c0,0.1,0,0.2-0.1,0.3c0,0.1-0.1,0.1-0.1,0.2c0,0-0.1,0-0.1,0c0,0-0.1,0-0.2,0
		c-0.1,0-0.1,0-0.2-0.1c-0.1,0-0.2,0-0.2-0.1c-0.1,0-0.2,0-0.3,0c-0.1,0-0.3,0-0.4,0.1c-0.1,0.1-0.3,0.1-0.4,0.2
		c-0.1,0.1-0.3,0.3-0.4,0.4c-0.1,0.2-0.3,0.4-0.5,0.7v5c0,0.1,0,0.1-0.1,0.2c0,0-0.1,0.1-0.2,0.1c-0.1,0-0.2,0.1-0.3,0.1
		c-0.1,0-0.3,0-0.5,0s-0.4,0-0.5,0c-0.1,0-0.3,0-0.3-0.1c-0.1,0-0.1-0.1-0.2-0.1s-0.1-0.1-0.1-0.2v-8c0-0.1,0-0.1,0-0.2
		c0,0,0.1-0.1,0.2-0.1c0.1,0,0.2-0.1,0.3-0.1c0.1,0,0.3,0,0.5,0c0.2,0,0.3,0,0.5,0s0.2,0,0.3,0.1c0.1,0,0.1,0.1,0.1,0.1
		c0,0,0,0.1,0,0.2v1c0.2-0.3,0.4-0.5,0.6-0.7c0.2-0.2,0.4-0.3,0.5-0.5s0.3-0.2,0.5-0.2c0.2,0,0.3-0.1,0.5-0.1c0.1,0,0.2,0,0.3,0
		c0.1,0,0.2,0,0.3,0c0.1,0,0.2,0,0.2,0.1c0.1,0,0.1,0.1,0.2,0.1c0,0,0.1,0.1,0.1,0.1s0,0.1,0,0.1c0,0.1,0,0.2,0,0.3
		C979,305.2,979,305.4,979,305.6z"/>
	<path class="st3" d="M982.8,302.1c0,0.5-0.1,0.8-0.3,0.9c-0.2,0.2-0.5,0.3-1,0.3c-0.5,0-0.8-0.1-1-0.3c-0.2-0.2-0.3-0.5-0.3-0.9
		c0-0.5,0.1-0.8,0.3-0.9c0.2-0.2,0.5-0.3,1-0.3c0.5,0,0.8,0.1,1,0.3C982.7,301.4,982.8,301.7,982.8,302.1z M982.6,312.8
		c0,0.1,0,0.1-0.1,0.2s-0.1,0.1-0.2,0.1c-0.1,0-0.2,0.1-0.3,0.1s-0.3,0-0.5,0c-0.2,0-0.4,0-0.5,0s-0.3,0-0.3-0.1
		c-0.1,0-0.1-0.1-0.2-0.1c0,0-0.1-0.1-0.1-0.2v-8c0-0.1,0-0.1,0.1-0.2c0,0,0.1-0.1,0.2-0.1c0.1,0,0.2-0.1,0.3-0.1c0.1,0,0.3,0,0.5,0
		c0.2,0,0.4,0,0.5,0c0.1,0,0.3,0,0.3,0.1c0.1,0,0.1,0.1,0.2,0.1c0,0,0.1,0.1,0.1,0.2V312.8z"/>
	<path class="st3" d="M992.1,305.4c0,0.3,0,0.5-0.1,0.6c-0.1,0.1-0.1,0.2-0.2,0.2h-0.9c0.1,0.1,0.2,0.3,0.3,0.5
		c0.1,0.2,0.1,0.4,0.1,0.6c0,0.5-0.1,0.9-0.2,1.2c-0.2,0.4-0.4,0.7-0.7,0.9c-0.3,0.2-0.6,0.4-1,0.6c-0.4,0.1-0.9,0.2-1.4,0.2
		c-0.3,0-0.5,0-0.7-0.1c-0.2-0.1-0.4-0.1-0.5-0.2c-0.1,0.1-0.1,0.2-0.2,0.3s-0.1,0.2-0.1,0.4c0,0.2,0.1,0.3,0.2,0.4
		c0.2,0.1,0.4,0.2,0.6,0.2l1.9,0.1c0.5,0,0.9,0.1,1.2,0.2s0.7,0.3,0.9,0.5c0.2,0.2,0.4,0.4,0.6,0.7c0.1,0.3,0.2,0.6,0.2,1
		c0,0.4-0.1,0.8-0.3,1.1c-0.2,0.3-0.4,0.7-0.8,0.9c-0.3,0.3-0.8,0.5-1.3,0.6s-1.1,0.2-1.8,0.2c-0.7,0-1.3-0.1-1.7-0.2
		c-0.5-0.1-0.9-0.3-1.2-0.4c-0.3-0.2-0.5-0.4-0.7-0.7c-0.1-0.3-0.2-0.6-0.2-0.9c0-0.2,0-0.4,0.1-0.6c0.1-0.2,0.1-0.4,0.2-0.5
		s0.2-0.3,0.4-0.5c0.1-0.1,0.3-0.3,0.5-0.4c-0.3-0.1-0.5-0.3-0.6-0.6c-0.1-0.2-0.2-0.5-0.2-0.8c0-0.4,0.1-0.7,0.2-1
		c0.2-0.3,0.4-0.6,0.6-0.8c-0.2-0.2-0.4-0.5-0.5-0.8c-0.1-0.3-0.2-0.7-0.2-1.1c0-0.5,0.1-0.9,0.2-1.2s0.4-0.7,0.7-0.9
		c0.3-0.3,0.6-0.4,1-0.6s0.9-0.2,1.3-0.2c0.3,0,0.5,0,0.7,0c0.2,0,0.4,0.1,0.6,0.1h2.5c0.1,0,0.2,0.1,0.2,0.2
		C992,304.9,992.1,305.1,992.1,305.4z M989.7,313.7c0-0.3-0.1-0.5-0.3-0.6s-0.5-0.2-0.9-0.2l-1.6,0c-0.2,0.1-0.3,0.2-0.4,0.3
		s-0.2,0.2-0.2,0.3c-0.1,0.1-0.1,0.2-0.1,0.3c0,0.1,0,0.2,0,0.3c0,0.3,0.2,0.5,0.5,0.7c0.3,0.2,0.7,0.2,1.3,0.2c0.3,0,0.6,0,0.9-0.1
		c0.2-0.1,0.4-0.2,0.6-0.3c0.1-0.1,0.2-0.2,0.3-0.4C989.7,314,989.7,313.8,989.7,313.7z M989.2,307.3c0-0.4-0.1-0.8-0.4-1
		c-0.2-0.2-0.6-0.4-1-0.4c-0.2,0-0.4,0-0.6,0.1c-0.2,0.1-0.3,0.2-0.4,0.3c-0.1,0.1-0.2,0.3-0.2,0.4s-0.1,0.3-0.1,0.5
		c0,0.4,0.1,0.7,0.4,1c0.2,0.2,0.6,0.4,1,0.4c0.2,0,0.4,0,0.6-0.1s0.3-0.2,0.4-0.3c0.1-0.1,0.2-0.3,0.3-0.4
		C989.2,307.6,989.2,307.5,989.2,307.3z"/>
	<path class="st3" d="M996,302.1c0,0.5-0.1,0.8-0.3,0.9c-0.2,0.2-0.5,0.3-1,0.3c-0.5,0-0.8-0.1-1-0.3c-0.2-0.2-0.3-0.5-0.3-0.9
		c0-0.5,0.1-0.8,0.3-0.9c0.2-0.2,0.5-0.3,1-0.3c0.5,0,0.8,0.1,1,0.3C995.9,301.4,996,301.7,996,302.1z M995.8,312.8
		c0,0.1,0,0.1-0.1,0.2s-0.1,0.1-0.2,0.1c-0.1,0-0.2,0.1-0.3,0.1s-0.3,0-0.5,0c-0.2,0-0.4,0-0.5,0s-0.3,0-0.3-0.1
		c-0.1,0-0.1-0.1-0.2-0.1c0,0-0.1-0.1-0.1-0.2v-8c0-0.1,0-0.1,0.1-0.2c0,0,0.1-0.1,0.2-0.1c0.1,0,0.2-0.1,0.3-0.1c0.1,0,0.3,0,0.5,0
		c0.2,0,0.4,0,0.5,0c0.1,0,0.3,0,0.3,0.1c0.1,0,0.1,0.1,0.2,0.1c0,0,0.1,0.1,0.1,0.2V312.8z"/>
	<path class="st3" d="M1005.7,312.8c0,0.1,0,0.1-0.1,0.2s-0.1,0.1-0.2,0.1c-0.1,0-0.2,0.1-0.3,0.1s-0.3,0-0.5,0c-0.2,0-0.4,0-0.6,0
		s-0.3,0-0.3-0.1c-0.1,0-0.1-0.1-0.2-0.1c0,0-0.1-0.1-0.1-0.2v-4.6c0-0.4,0-0.7-0.1-0.9c-0.1-0.2-0.1-0.4-0.2-0.6s-0.2-0.3-0.4-0.4
		c-0.2-0.1-0.4-0.1-0.6-0.1c-0.3,0-0.6,0.1-0.9,0.3c-0.3,0.2-0.6,0.5-0.9,0.9v5.3c0,0.1,0,0.1-0.1,0.2s-0.1,0.1-0.2,0.1
		c-0.1,0-0.2,0.1-0.3,0.1s-0.3,0-0.5,0c-0.2,0-0.4,0-0.5,0s-0.3,0-0.3-0.1c-0.1,0-0.1-0.1-0.2-0.1c0,0-0.1-0.1-0.1-0.2v-8
		c0-0.1,0-0.1,0-0.2c0,0,0.1-0.1,0.2-0.1c0.1,0,0.2-0.1,0.3-0.1c0.1,0,0.3,0,0.5,0c0.2,0,0.3,0,0.5,0c0.1,0,0.2,0,0.3,0.1
		c0.1,0,0.1,0.1,0.1,0.1c0,0,0,0.1,0,0.2v0.9c0.4-0.5,0.9-0.8,1.3-1.1c0.5-0.2,0.9-0.4,1.4-0.4c0.5,0,1,0.1,1.4,0.3
		c0.4,0.2,0.7,0.4,0.9,0.7s0.4,0.7,0.5,1.1s0.2,0.9,0.2,1.5V312.8z"/>
	<path class="st3" d="M1019.1,309.7c0,0.6-0.1,1.1-0.3,1.6c-0.2,0.5-0.5,0.8-0.9,1.2c-0.4,0.3-0.8,0.5-1.4,0.7
		c-0.5,0.2-1.1,0.2-1.7,0.2c-0.4,0-0.8,0-1.1-0.1c-0.3-0.1-0.6-0.1-0.9-0.2s-0.5-0.2-0.7-0.3s-0.3-0.2-0.4-0.3
		c-0.1-0.1-0.1-0.2-0.2-0.3c0-0.1,0-0.4,0-0.6c0-0.2,0-0.3,0-0.5c0-0.1,0-0.2,0.1-0.3c0-0.1,0.1-0.1,0.1-0.2c0,0,0.1,0,0.2,0
		c0.1,0,0.2,0,0.4,0.1s0.3,0.2,0.6,0.3c0.2,0.1,0.5,0.2,0.9,0.3s0.7,0.1,1.2,0.1c0.3,0,0.5,0,0.8-0.1c0.2-0.1,0.4-0.2,0.6-0.3
		c0.2-0.1,0.3-0.3,0.4-0.5c0.1-0.2,0.1-0.4,0.1-0.6c0-0.3-0.1-0.5-0.2-0.7c-0.1-0.2-0.3-0.4-0.6-0.5c-0.2-0.1-0.5-0.3-0.8-0.4
		c-0.3-0.1-0.6-0.3-0.9-0.4c-0.3-0.1-0.6-0.3-0.9-0.5c-0.3-0.2-0.6-0.4-0.8-0.7c-0.2-0.3-0.4-0.6-0.6-0.9c-0.1-0.3-0.2-0.8-0.2-1.2
		c0-0.6,0.1-1,0.3-1.5s0.5-0.8,0.8-1c0.3-0.3,0.8-0.5,1.2-0.6c0.5-0.1,1-0.2,1.5-0.2c0.3,0,0.5,0,0.8,0.1c0.3,0,0.5,0.1,0.8,0.2
		c0.2,0.1,0.5,0.2,0.6,0.2c0.2,0.1,0.3,0.2,0.4,0.2c0.1,0.1,0.1,0.1,0.1,0.2c0,0,0,0.1,0.1,0.2c0,0.1,0,0.2,0,0.3s0,0.2,0,0.4
		c0,0.2,0,0.3,0,0.4c0,0.1,0,0.2,0,0.3c0,0.1-0.1,0.1-0.1,0.2c0,0-0.1,0.1-0.2,0.1c-0.1,0-0.2,0-0.3-0.1c-0.1-0.1-0.3-0.2-0.5-0.3
		c-0.2-0.1-0.5-0.2-0.7-0.3c-0.3-0.1-0.6-0.1-0.9-0.1c-0.3,0-0.5,0-0.7,0.1c-0.2,0.1-0.4,0.1-0.5,0.3c-0.1,0.1-0.2,0.2-0.3,0.4
		c-0.1,0.2-0.1,0.3-0.1,0.5c0,0.3,0.1,0.5,0.2,0.7c0.1,0.2,0.3,0.4,0.6,0.5c0.2,0.1,0.5,0.3,0.8,0.4c0.3,0.1,0.6,0.3,0.9,0.4
		s0.6,0.3,0.9,0.5s0.6,0.4,0.8,0.7c0.2,0.3,0.4,0.6,0.6,0.9C1019,308.8,1019.1,309.2,1019.1,309.7z"/>
	<path class="st3" d="M1028.1,308.6c0,0.3-0.1,0.5-0.2,0.6c-0.1,0.1-0.3,0.2-0.5,0.2h-4.9c0,0.3,0,0.6,0.1,0.9
		c0.1,0.3,0.2,0.5,0.4,0.7s0.4,0.3,0.7,0.4c0.3,0.1,0.6,0.2,1,0.2c0.4,0,0.7,0,1-0.1s0.6-0.1,0.8-0.2c0.2-0.1,0.4-0.1,0.5-0.2
		c0.1-0.1,0.3-0.1,0.3-0.1c0.1,0,0.1,0,0.1,0c0,0,0.1,0.1,0.1,0.1c0,0.1,0,0.1,0,0.2s0,0.2,0,0.4c0,0.1,0,0.2,0,0.3s0,0.2,0,0.2
		s0,0.1-0.1,0.2c0,0-0.1,0.1-0.1,0.1s-0.1,0.1-0.3,0.2c-0.2,0.1-0.4,0.1-0.7,0.2c-0.3,0.1-0.6,0.1-0.9,0.2c-0.3,0.1-0.7,0.1-1.1,0.1
		c-0.7,0-1.3-0.1-1.9-0.3c-0.5-0.2-1-0.5-1.3-0.8s-0.6-0.8-0.8-1.4c-0.2-0.6-0.3-1.2-0.3-2c0-0.7,0.1-1.4,0.3-1.9
		c0.2-0.6,0.5-1.1,0.8-1.5c0.4-0.4,0.8-0.7,1.3-0.9s1.1-0.3,1.7-0.3c0.7,0,1.2,0.1,1.7,0.3c0.5,0.2,0.9,0.5,1.2,0.8s0.5,0.8,0.7,1.2
		c0.1,0.5,0.2,1,0.2,1.6V308.6z M1025.9,308c0-0.6-0.1-1.1-0.4-1.5s-0.7-0.5-1.3-0.5c-0.3,0-0.5,0.1-0.7,0.2s-0.4,0.3-0.5,0.4
		c-0.1,0.2-0.2,0.4-0.3,0.6c-0.1,0.2-0.1,0.5-0.1,0.8H1025.9z"/>
	<path class="st3" d="M1035.1,305.6c0,0.2,0,0.4,0,0.5c0,0.1,0,0.2-0.1,0.3c0,0.1-0.1,0.1-0.1,0.2c0,0-0.1,0-0.1,0c0,0-0.1,0-0.2,0
		c-0.1,0-0.1,0-0.2-0.1c-0.1,0-0.2,0-0.2-0.1c-0.1,0-0.2,0-0.3,0c-0.1,0-0.3,0-0.4,0.1c-0.1,0.1-0.3,0.1-0.4,0.2
		c-0.1,0.1-0.3,0.3-0.4,0.4c-0.1,0.2-0.3,0.4-0.5,0.7v5c0,0.1,0,0.1-0.1,0.2c0,0-0.1,0.1-0.2,0.1c-0.1,0-0.2,0.1-0.3,0.1
		c-0.1,0-0.3,0-0.5,0s-0.4,0-0.5,0c-0.1,0-0.3,0-0.3-0.1c-0.1,0-0.1-0.1-0.2-0.1s-0.1-0.1-0.1-0.2v-8c0-0.1,0-0.1,0-0.2
		c0,0,0.1-0.1,0.2-0.1c0.1,0,0.2-0.1,0.3-0.1c0.1,0,0.3,0,0.5,0c0.2,0,0.3,0,0.5,0s0.2,0,0.3,0.1c0.1,0,0.1,0.1,0.1,0.1
		c0,0,0,0.1,0,0.2v1c0.2-0.3,0.4-0.5,0.6-0.7c0.2-0.2,0.4-0.3,0.5-0.5s0.3-0.2,0.5-0.2c0.2,0,0.3-0.1,0.5-0.1c0.1,0,0.2,0,0.3,0
		c0.1,0,0.2,0,0.3,0c0.1,0,0.2,0,0.2,0.1c0.1,0,0.1,0.1,0.2,0.1c0,0,0.1,0.1,0.1,0.1s0,0.1,0,0.1c0,0.1,0,0.2,0,0.3
		C1035.1,305.2,1035.1,305.4,1035.1,305.6z"/>
	<path class="st3" d="M1044,304.8c0,0,0,0.1,0,0.1c0,0,0,0.1,0,0.1s0,0.1,0,0.2c0,0.1,0,0.1-0.1,0.2l-2.4,7.2c0,0.1-0.1,0.2-0.1,0.2
		s-0.1,0.1-0.3,0.1c-0.1,0-0.3,0.1-0.5,0.1c-0.2,0-0.5,0-0.8,0c-0.3,0-0.6,0-0.8,0c-0.2,0-0.4,0-0.5-0.1s-0.2-0.1-0.2-0.1
		s-0.1-0.1-0.1-0.2l-2.4-7.2c0-0.1-0.1-0.2-0.1-0.3c0-0.1,0-0.2,0-0.2c0,0,0-0.1,0-0.1c0-0.1,0-0.1,0-0.2c0,0,0.1-0.1,0.2-0.1
		c0.1,0,0.2-0.1,0.3-0.1c0.1,0,0.3,0,0.6,0c0.2,0,0.4,0,0.6,0s0.3,0,0.4,0.1c0.1,0,0.1,0.1,0.2,0.1c0,0.1,0.1,0.1,0.1,0.2l1.8,5.9
		l0.1,0.2l0.1-0.2l1.8-5.9c0-0.1,0-0.1,0.1-0.2s0.1-0.1,0.2-0.1c0.1,0,0.2,0,0.3-0.1s0.3,0,0.6,0c0.2,0,0.4,0,0.5,0
		c0.1,0,0.2,0,0.3,0.1c0.1,0,0.1,0.1,0.2,0.1C1044,304.7,1044,304.8,1044,304.8z"/>
	<path class="st3" d="M1052.5,308.6c0,0.3-0.1,0.5-0.2,0.6c-0.1,0.1-0.3,0.2-0.5,0.2h-4.9c0,0.3,0,0.6,0.1,0.9
		c0.1,0.3,0.2,0.5,0.4,0.7s0.4,0.3,0.7,0.4c0.3,0.1,0.6,0.2,1,0.2c0.4,0,0.7,0,1-0.1s0.6-0.1,0.8-0.2c0.2-0.1,0.4-0.1,0.5-0.2
		c0.1-0.1,0.3-0.1,0.3-0.1c0.1,0,0.1,0,0.1,0c0,0,0.1,0.1,0.1,0.1c0,0.1,0,0.1,0,0.2s0,0.2,0,0.4c0,0.1,0,0.2,0,0.3s0,0.2,0,0.2
		s0,0.1-0.1,0.2c0,0-0.1,0.1-0.1,0.1s-0.1,0.1-0.3,0.2c-0.2,0.1-0.4,0.1-0.7,0.2c-0.3,0.1-0.6,0.1-0.9,0.2c-0.3,0.1-0.7,0.1-1.1,0.1
		c-0.7,0-1.3-0.1-1.9-0.3c-0.5-0.2-1-0.5-1.3-0.8s-0.6-0.8-0.8-1.4c-0.2-0.6-0.3-1.2-0.3-2c0-0.7,0.1-1.4,0.3-1.9
		c0.2-0.6,0.5-1.1,0.8-1.5c0.4-0.4,0.8-0.7,1.3-0.9s1.1-0.3,1.7-0.3c0.7,0,1.2,0.1,1.7,0.3c0.5,0.2,0.9,0.5,1.2,0.8s0.5,0.8,0.7,1.2
		c0.1,0.5,0.2,1,0.2,1.6V308.6z M1050.4,308c0-0.6-0.1-1.1-0.4-1.5s-0.7-0.5-1.3-0.5c-0.3,0-0.5,0.1-0.7,0.2s-0.4,0.3-0.5,0.4
		c-0.1,0.2-0.2,0.4-0.3,0.6c-0.1,0.2-0.1,0.5-0.1,0.8H1050.4z"/>
	<path class="st3" d="M1059.5,305.6c0,0.2,0,0.4,0,0.5c0,0.1,0,0.2-0.1,0.3c0,0.1-0.1,0.1-0.1,0.2c0,0-0.1,0-0.1,0c0,0-0.1,0-0.2,0
		c-0.1,0-0.1,0-0.2-0.1c-0.1,0-0.2,0-0.2-0.1c-0.1,0-0.2,0-0.3,0c-0.1,0-0.3,0-0.4,0.1c-0.1,0.1-0.3,0.1-0.4,0.2
		c-0.1,0.1-0.3,0.3-0.4,0.4c-0.1,0.2-0.3,0.4-0.5,0.7v5c0,0.1,0,0.1-0.1,0.2c0,0-0.1,0.1-0.2,0.1c-0.1,0-0.2,0.1-0.3,0.1
		c-0.1,0-0.3,0-0.5,0s-0.4,0-0.5,0c-0.1,0-0.3,0-0.3-0.1c-0.1,0-0.1-0.1-0.2-0.1s-0.1-0.1-0.1-0.2v-8c0-0.1,0-0.1,0-0.2
		c0,0,0.1-0.1,0.2-0.1c0.1,0,0.2-0.1,0.3-0.1c0.1,0,0.3,0,0.5,0c0.2,0,0.3,0,0.5,0s0.2,0,0.3,0.1c0.1,0,0.1,0.1,0.1,0.1
		c0,0,0,0.1,0,0.2v1c0.2-0.3,0.4-0.5,0.6-0.7c0.2-0.2,0.4-0.3,0.5-0.5s0.3-0.2,0.5-0.2c0.2,0,0.3-0.1,0.5-0.1c0.1,0,0.2,0,0.3,0
		c0.1,0,0.2,0,0.3,0c0.1,0,0.2,0,0.2,0.1c0.1,0,0.1,0.1,0.2,0.1c0,0,0.1,0.1,0.1,0.1s0,0.1,0,0.1c0,0.1,0,0.2,0,0.3
		C1059.5,305.2,1059.5,305.4,1059.5,305.6z"/>
</g>
<g>
	<rect x="123.2" y="97.7" class="st4" width="31.2" height="9.9"/>
	<path class="st5" d="M194.7,18.7c0-1.7-1.4-3.1-3.1-3.1H86.1c-1.7,0-3.1,1.4-3.1,3.1v64.8h111.6L194.7,18.7L194.7,18.7z"/>
	<rect x="89.1" y="21.7" class="st6" width="99.5" height="61.8"/>
	<path class="st5" d="M83,83.5v12.2c0,1.7,1.4,3.1,3.1,3.1h105.4c1.7,0,3.1-1.4,3.1-3.1V83.5H83z"/>
	<circle class="st7" cx="138.8" cy="91.1" r="4.2"/>
	<path class="st8" d="M158.2,106.9h-38.8c-3.9,0-7.1,3.2-7.1,7.1l0,0h53l0,0C165.3,110.1,162.1,106.9,158.2,106.9z"/>
</g>
<g>
	<rect x="125.3" y="227.8" class="st4" width="31.2" height="9.9"/>
	<path class="st5" d="M196.7,148.8c0-1.7-1.4-3.1-3.1-3.1H88.2c-1.7,0-3.1,1.4-3.1,3.1v64.8h111.6V148.8z"/>
	<rect x="91.2" y="151.8" class="st6" width="99.5" height="61.8"/>
	<path class="st5" d="M85.1,213.6v12.2c0,1.7,1.4,3.1,3.1,3.1h105.4c1.7,0,3.1-1.4,3.1-3.1v-12.2H85.1z"/>
	<circle class="st7" cx="140.9" cy="221.2" r="4.2"/>
	<path class="st8" d="M160.3,237h-38.8c-3.9,0-7.1,3.2-7.1,7.1l0,0h53l0,0C167.4,240.2,164.2,237,160.3,237z"/>
</g>
<g>
	<rect x="125.3" y="367.7" class="st4" width="31.2" height="9.9"/>
	<path class="st5" d="M196.7,288.7c0-1.7-1.4-3.1-3.1-3.1H88.2c-1.7,0-3.1,1.4-3.1,3.1v64.8h111.6V288.7z"/>
	<rect x="91.1" y="291.7" class="st6" width="99.5" height="61.8"/>
	<path class="st5" d="M85.1,353.5v12.2c0,1.7,1.4,3.1,3.1,3.1h105.4c1.7,0,3.1-1.4,3.1-3.1v-12.2H85.1z"/>
	<circle class="st7" cx="140.9" cy="361.1" r="4.2"/>
	<path class="st8" d="M160.3,376.9h-38.8c-3.9,0-7.1,3.2-7.1,7.1l0,0h53l0,0C167.3,380.1,164.2,376.9,160.3,376.9z"/>
</g>
<g>
	<g>
		<path class="st9" d="M992.3,275.4h-45.5c-2.3,0-4.1,1.9-4.1,4.1s1.9,4.1,4.1,4.1h45.5c2.3,0,4.1-1.9,4.1-4.1
			S994.6,275.4,992.3,275.4z"/>
		<path class="st9" d="M1128.9,275.4H1104c-2.3,0-4.1,1.9-4.1,4.1s1.9,4.1,4.1,4.1h24.8c2.3,0,4.1-1.9,4.1-4.1
			S1131.2,275.4,1128.9,275.4z"/>
		<path class="st9" d="M1070.9,275.4h-45.5c-2.3,0-4.1,1.9-4.1,4.1s1.9,4.1,4.1,4.1h45.5c2.3,0,4.1-1.9,4.1-4.1
			S1073.2,275.4,1070.9,275.4z"/>
		<path class="st9" d="M913.7,275.4h-24.8c-2.3,0-4.1,1.9-4.1,4.1s1.9,4.1,4.1,4.1h24.8c2.3,0,4.1-1.9,4.1-4.1
			S916,275.4,913.7,275.4z"/>
		<path class="st9" d="M1008.9,234c-2.3,0-4.1,1.9-4.1,4.1v33.1c0,2.3,1.9,4.1,4.1,4.1c2.3,0,4.1-1.9,4.1-4.1v-33.1
			C1013,235.8,1011.2,234,1008.9,234z"/>
		<path class="st9" d="M1087.5,213.3c-2.3,0-4.1,1.9-4.1,4.1v53.8c0,2.3,1.9,4.1,4.1,4.1s4.1-1.9,4.1-4.1v-53.8
			C1091.6,215.1,1089.8,213.3,1087.5,213.3z"/>
		<path class="st9" d="M930.3,213.3c-2.3,0-4.1,1.9-4.1,4.1v53.8c0,2.3,1.9,4.1,4.1,4.1c2.3,0,4.1-1.9,4.1-4.1v-53.8
			C934.4,215.1,932.5,213.3,930.3,213.3z"/>
	</g>
	<g>
		<path class="st10" d="M917.9,271.2h24.8c2.3,0,4.1,1.9,4.1,4.1v8.3c0,2.3-1.9,4.1-4.1,4.1h-24.8c-2.3,0-4.1-1.9-4.1-4.1v-8.3
			C913.7,273.1,915.6,271.2,917.9,271.2z"/>
		<path class="st10" d="M1075.1,271.2h24.8c2.3,0,4.1,1.9,4.1,4.1v8.3c0,2.3-1.9,4.1-4.1,4.1h-24.8c-2.3,0-4.1-1.9-4.1-4.1v-8.3
			C1070.9,273.1,1072.8,271.2,1075.1,271.2z"/>
		<path class="st10" d="M996.5,271.2h24.8c2.3,0,4.1,1.9,4.1,4.1v8.3c0,2.3-1.9,4.1-4.1,4.1h-24.8c-2.3,0-4.1-1.9-4.1-4.1v-8.3
			C992.3,273.1,994.2,271.2,996.5,271.2z"/>
	</g>
	<path class="st11" d="M897.2,68.5h70.3v149h-70.3c-4.6,0-8.3-3.7-8.3-8.3V76.8C888.9,72.2,892.6,68.5,897.2,68.5z"/>
	<path class="st12" d="M888.9,76.8v33.1h78.6V68.5h-70.3C892.6,68.5,888.9,72.2,888.9,76.8z"/>
	<g>
		<path class="st13" d="M942.7,130.5h-24.8c-2.3,0-4.1-1.9-4.1-4.1c0-2.3,1.9-4.1,4.1-4.1h24.8c2.3,0,4.1,1.9,4.1,4.1
			C946.8,128.7,945,130.5,942.7,130.5z"/>
		<path class="st13" d="M917.9,138.8h24.8c2.3,0,4.1,1.9,4.1,4.1c0,2.3-1.9,4.1-4.1,4.1h-24.8c-2.3,0-4.1-1.9-4.1-4.1
			C913.7,140.7,915.6,138.8,917.9,138.8z"/>
	</g>
	<circle class="st14" cx="930.3" cy="180.2" r="12.4"/>
	<g>
		<path class="st11" d="M934.4,85h-29c-2.3,0-4.1,1.9-4.1,4.1s1.9,4.1,4.1,4.1h29c2.3,0,4.1-1.9,4.1-4.1S936.7,85,934.4,85z"/>
		<path class="st11" d="M955.1,85H951c-2.3,0-4.1,1.9-4.1,4.1s1.9,4.1,4.1,4.1h4.1c2.3,0,4.1-1.9,4.1-4.1S957.4,85,955.1,85z"/>
		<path class="st11" d="M1120.6,68.5h-70.3v149h70.3c4.6,0,8.3-3.7,8.3-8.3V76.8C1128.9,72.2,1125.2,68.5,1120.6,68.5z"/>
	</g>
	<path class="st12" d="M1128.9,76.8v33.1h-78.6V68.5h70.3C1125.2,68.5,1128.9,72.2,1128.9,76.8z"/>
	<g>
		<path class="st13" d="M1075.1,130.5h24.8c2.3,0,4.1-1.9,4.1-4.1c0-2.3-1.9-4.1-4.1-4.1h-24.8c-2.3,0-4.1,1.9-4.1,4.1
			C1070.9,128.7,1072.8,130.5,1075.1,130.5z"/>
		<path class="st13" d="M1099.9,138.8h-24.8c-2.3,0-4.1,1.9-4.1,4.1c0,2.3,1.9,4.1,4.1,4.1h24.8c2.3,0,4.1-1.9,4.1-4.1
			S1102.2,138.8,1099.9,138.8z"/>
	</g>
	<circle class="st14" cx="1087.5" cy="180.2" r="12.4"/>
	<g>
		<path class="st11" d="M1091.6,85h-29c-2.3,0-4.1,1.9-4.1,4.1s1.9,4.1,4.1,4.1h29c2.3,0,4.1-1.9,4.1-4.1S1093.9,85,1091.6,85z"/>
		<path class="st11" d="M1112.3,85h-4.1c-2.3,0-4.1,1.9-4.1,4.1s1.9,4.1,4.1,4.1h4.1c2.3,0,4.1-1.9,4.1-4.1S1114.6,85,1112.3,85z"/>
	</g>
	<path class="st15" d="M959.2,109.9v120c0,4.6,3.7,8.3,8.3,8.3h82.8c4.6,0,8.3-3.7,8.3-8.3V56.1c0-4.6-3.7-8.3-8.3-8.3h-82.8
		c-4.6,0-8.3,3.7-8.3,8.3v12.4"/>
	<path class="st13" d="M1058.5,56.1v41.4h-99.3V56.1c0-4.6,3.7-8.3,8.3-8.3h82.8C1054.8,47.8,1058.5,51.5,1058.5,56.1z"/>
	<circle class="st16" cx="1008.9" cy="200.9" r="12.4"/>
	<g>
		<path class="st15" d="M1021.3,68.5h-45.5c-2.3,0-4.1,1.9-4.1,4.1c0,2.3,1.9,4.1,4.1,4.1h45.5c2.3,0,4.1-1.9,4.1-4.1
			S1023.6,68.5,1021.3,68.5z"/>
		<path class="st15" d="M1042,68.5h-4.1c-2.3,0-4.1,1.9-4.1,4.1c0,2.3,1.9,4.1,4.1,4.1h4.1c2.3,0,4.1-1.9,4.1-4.1
			S1044.3,68.5,1042,68.5z"/>
	</g>
	<g>
		<path class="st17" d="M988.2,118.1h41.4c2.3,0,4.1-1.9,4.1-4.1c0-2.3-1.9-4.1-4.1-4.1h-41.4c-2.3,0-4.1,1.9-4.1,4.1
			C984.1,116.3,985.9,118.1,988.2,118.1z"/>
		<path class="st17" d="M1029.6,126.4h-41.4c-2.3,0-4.1,1.9-4.1,4.1s1.9,4.1,4.1,4.1h41.4c2.3,0,4.1-1.9,4.1-4.1
			S1031.9,126.4,1029.6,126.4z"/>
		<path class="st17" d="M1029.6,143h-41.4c-2.3,0-4.1,1.9-4.1,4.1c0,2.3,1.9,4.1,4.1,4.1h41.4c2.3,0,4.1-1.9,4.1-4.1
			C1033.7,144.8,1031.9,143,1029.6,143z"/>
	</g>
</g>
<g>
	<line class="st18" x1="224.8" y1="71.5" x2="421.2" y2="171.5"/>
	<g>
		<line class="st19" x1="224.8" y1="71.5" x2="415.6" y2="168.6"/>
		<g>
			<path class="st5" d="M415,168.3c-0.8-2.5,0.1-6.1,1.2-8.4c0.7,4.2,2.3,8.3,5.1,11.6c-4.3-0.4-8.5,1-12.4,2.7
				C410.3,171.9,412.3,169.3,415,168.3z"/>
		</g>
	</g>
</g>
<g>
	<line class="st18" x1="217.3" y1="200.5" x2="421" y2="222"/>
	<g>
		<line class="st20" x1="217.3" y1="200.5" x2="414.5" y2="221.3"/>
		<g>
			<path class="st5" d="M413.7,221.2c-1.7-2.1-2.2-6-2-8.7c2.3,3.8,5.4,7.3,9.3,9.4c-4.3,1.2-7.9,4.1-11.1,7.3
				C410.5,226.5,411.5,223.1,413.7,221.2z"/>
		</g>
	</g>
</g>
<g>
	<line class="st18" x1="219.2" y1="318" x2="424" y2="270"/>
	<g>
		<line class="st21" x1="219.2" y1="318" x2="417.7" y2="271.5"/>
		<g>
			<path class="st5" d="M417,271.6c-2.3-1.4-4-4.9-4.7-7.4c3.3,2.8,7.3,5,11.7,5.7c-3.6,2.5-6,6.4-7.9,10.3
				C415.6,277.6,415.5,274.1,417,271.6z"/>
		</g>
	</g>
</g>
<g>
	<g>
		<line class="st22" x1="732" y1="207" x2="850.9" y2="207"/>
		<g>
			<path class="st5" d="M850.1,207c-2.1-2.1-3.1-6.2-3.2-9.1c2.9,3.8,6.6,7.2,11.1,9.1c-4.5,1.8-8.1,5.4-11.1,9.1
				C847.2,213,847.9,209.3,850.1,207z"/>
		</g>
	</g>
</g>
<g>
	<circle class="st23" cx="138.8" cy="53.3" r="18"/>
	<polyline class="st24" points="126.3,54.7 133.8,62.2 151.4,44.3 	"/>
</g>
<g>
	<circle class="st23" cx="140.9" cy="183.9" r="18"/>
	<polyline class="st25" points="128.4,185.4 135.9,192.9 153.5,174.9 	"/>
</g>
<g>
	<circle class="st23" cx="435" cy="174" r="7"/>
	<polyline class="st26" points="430.1,174.6 433,177.5 439.9,170.5 	"/>
</g>
<g>
	<circle class="st23" cx="437" cy="222" r="7"/>
	<polyline class="st26" points="432.1,222.6 435,225.5 441.9,218.5 	"/>
</g>
<g>
	<circle class="st27" cx="437" cy="268" r="7"/>
	<g>
		<line class="st28" x1="440.1" y1="264.6" x2="433.9" y2="271.4"/>
		<line class="st28" x1="433.8" y1="264.8" x2="440.2" y2="271.2"/>
	</g>
</g>
<g>
	<path class="st29" d="M167.3,343.5c-0.6-1.2-1.6-2.2-2.8-2.7l-9-2.4c7.4-8.8,12.2-19.6-0.2-32.2c-4.6-4.6-13.7-6.5-13.7-6.5
		s-9.1,1.9-13.7,6.5c-12.3,12.5-7.4,23.3-0.1,32.2l-9,2.4c-1.2,0.5-2.2,1.5-2.8,2.7l-3.7,10h29.2h29.2L167.3,343.5z"/>
	<path class="st30" d="M151.7,311.7c-2.7-2.8-5.5-1.9-10-1.9s-7.3-0.9-10,1.9c-4.4,4.5-2.4,15.1,1.8,23.9c3.7,3.8,8.3,5.1,8.3,5.1
		s4.5-1.3,8.1-4.9C154.1,327,156.2,316.3,151.7,311.7z"/>
	<path class="st6" d="M131.6,311.7c-4.4,4.5-2.4,15.2,1.9,24c3.7,3.7,8.2,5,8.2,5v-30.8C137.1,309.9,134.4,308.9,131.6,311.7z"/>
	<g>
		<polygon class="st29" points="141.7,339.8 139.8,333.4 143.5,333.4 		"/>
	</g>
	<path class="st29" d="M150.8,326.1l-2.7,1.8l-4.6-1.8h-0.9h-1.8h-0.9l-4.6,1.8l-2.7-1.8h-0.9l1.9,2.6c0.5,0.7,1.3,1.1,2.2,1.1h4.1
		l1.8-2.4l1.8,2.4h4.1c0.9,0,1.7-0.4,2.2-1.1l1.9-2.6H150.8z"/>
	<g>
		<path class="st29" d="M140.8,320.6c-2.7-5.5-9.1,0-9.1,0H140.8z"/>
	</g>
	<g>
		<path class="st29" d="M142.6,320.6c2.7-5.5,9.1,0,9.1,0H142.6z"/>
	</g>
	<g>
		<path class="st29" d="M132.5,313.3c1.8-0.9,8.2,2.9,8.2,2.9S135.3,308.8,132.5,313.3z"/>
	</g>
	<g>
		<path class="st29" d="M150.8,313.3c-1.8-0.9-8.2,2.9-8.2,2.9S148.1,308.8,150.8,313.3z"/>
	</g>
	<path class="st31" d="M141.7,340.7c0,0-4.5-1.3-8.2-5c2.3,4.8,5.3,9,8.2,11.3c2.9-2.3,5.9-6.5,8.2-11.3
		C146.2,339.4,141.7,340.7,141.7,340.7z"/>
	<path class="st32" d="M133.5,335.7c2.3,4.8,5.3,9,8.2,11.3v-6.3C141.7,340.7,137.2,339.4,133.5,335.7z"/>
</g>
</svg>
